<mxfile host="Electron" modified="2024-05-19T14:27:09.912Z" agent="Mozilla/5.0 (Windows NT 10.0; Win64; x64) AppleWebKit/537.36 (KHTML, like Gecko) draw.io/24.4.0 Chrome/120.0.6099.109 Electron/28.1.0 Safari/537.36" etag="sK_fkT8Ux9RJWioUB58D" version="24.4.0" type="device">
  <diagram name="Page-1" id="b5b7bab2-c9e2-2cf4-8b2a-24fd1a2a6d21">
    <mxGraphModel dx="1372" dy="884" grid="1" gridSize="10" guides="1" tooltips="1" connect="1" arrows="1" fold="1" page="1" pageScale="1" pageWidth="827" pageHeight="1169" background="none" math="0" shadow="0">
      <root>
        <mxCell id="0" />
        <mxCell id="1" parent="0" />
        <mxCell id="XzUnMnenu4ofP4VCOcNQ-1" value="" style="shape=folder;fontStyle=1;spacingTop=10;tabWidth=120;tabHeight=40;tabPosition=left;html=1;whiteSpace=wrap;" parent="1" vertex="1">
          <mxGeometry x="70" y="90" width="710" height="240" as="geometry" />
        </mxCell>
        <mxCell id="XzUnMnenu4ofP4VCOcNQ-13" value="" style="shape=folder;fontStyle=1;spacingTop=10;tabWidth=120;tabHeight=40;tabPosition=left;html=1;whiteSpace=wrap;" parent="1" vertex="1">
          <mxGeometry x="330" y="150" width="190" height="160" as="geometry" />
        </mxCell>
        <mxCell id="XzUnMnenu4ofP4VCOcNQ-2" value="FuzyLib" style="text;strokeColor=none;fillColor=none;fontSize=24;fontStyle=0;verticalAlign=middle;align=center;" parent="1" vertex="1">
          <mxGeometry x="80" y="90" width="100" height="40" as="geometry" />
        </mxCell>
        <mxCell id="XzUnMnenu4ofP4VCOcNQ-3" value="" style="shape=folder;fontStyle=1;spacingTop=10;tabWidth=120;tabHeight=40;tabPosition=left;html=1;whiteSpace=wrap;" parent="1" vertex="1">
          <mxGeometry x="90" y="150" width="190" height="160" as="geometry" />
        </mxCell>
        <mxCell id="XzUnMnenu4ofP4VCOcNQ-4" value="FuzySet" style="text;strokeColor=none;fillColor=none;fontSize=12;fontStyle=0;verticalAlign=middle;align=center;" parent="1" vertex="1">
          <mxGeometry x="100" y="150" width="100" height="40" as="geometry" />
        </mxCell>
        <mxCell id="XzUnMnenu4ofP4VCOcNQ-6" value="Linguistic &#xa;Summary" style="text;strokeColor=none;fillColor=none;fontSize=12;fontStyle=0;verticalAlign=middle;align=center;" parent="1" vertex="1">
          <mxGeometry x="340" y="150" width="100" height="40" as="geometry" />
        </mxCell>
        <mxCell id="XzUnMnenu4ofP4VCOcNQ-14" value="" style="shape=folder;fontStyle=1;spacingTop=10;tabWidth=120;tabHeight=40;tabPosition=left;html=1;whiteSpace=wrap;" parent="1" vertex="1">
          <mxGeometry x="570" y="150" width="190" height="160" as="geometry" />
        </mxCell>
        <mxCell id="XzUnMnenu4ofP4VCOcNQ-8" value="LinguisticVariable" style="text;strokeColor=none;fillColor=none;fontSize=12;fontStyle=0;verticalAlign=middle;align=center;" parent="1" vertex="1">
          <mxGeometry x="580" y="150" width="100" height="40" as="geometry" />
        </mxCell>
      </root>
    </mxGraphModel>
  </diagram>
</mxfile>
